<?xml version="1.0" standalone="no"?>
<!DOCTYPE svg PUBLIC "-//W3C//DTD SVG 20010904//EN"
 "http://www.w3.org/TR/2001/REC-SVG-20010904/DTD/svg10.dtd">
<svg version="1.0" xmlns="http://www.w3.org/2000/svg"
 width="400.000000pt" height="400.000000pt" viewBox="0 0 400.000000 400.000000"
 preserveAspectRatio="xMidYMid meet">
<metadata>
Created by potrace 1.14, written by Peter Selinger 2001-2017
</metadata>
<g transform="translate(0.000000,400.000000) scale(0.100000,-0.100000)"
fill="#000000" stroke="none">
<path d="M2675 3633 c-52 -11 -171 -57 -218 -85 -79 -46 -152 -112 -204 -186
-138 -191 -200 -232 -478 -317 -344 -105 -643 -387 -776 -730 -80 -205 -108
-453 -75 -642 35 -197 99 -364 197 -512 60 -90 218 -252 309 -316 215 -151
419 -221 678 -232 223 -9 416 30 605 123 109 54 133 72 50 39 -132 -54 -224
-69 -413 -69 -156 1 -185 4 -273 27 -171 46 -336 135 -479 260 -65 57 -178
200 -226 287 -34 62 -59 137 -48 147 9 10 76 -58 166 -167 136 -167 245 -261
388 -338 84 -44 231 -96 302 -107 l45 -6 -75 45 c-219 130 -351 308 -416 561
-59 228 9 392 196 479 35 16 65 20 135 20 84 0 96 -2 185 -42 52 -23 163 -81
245 -128 231 -132 302 -155 475 -155 128 1 196 17 315 76 99 48 161 99 171
139 15 62 -2 91 -123 209 -134 130 -213 224 -271 323 -34 56 -46 92 -62 172
-10 55 -28 119 -40 142 -30 59 -93 124 -153 158 -68 39 -137 113 -172 187 -27
59 -28 61 -22 200 6 144 23 233 71 373 14 39 22 71 18 71 -4 -1 -16 -3 -27 -6z
m-229 -804 c23 -16 112 -63 197 -104 182 -89 206 -111 238 -218 69 -234 140
-357 293 -505 l93 -90 -6 -68 -6 -69 -48 -32 -48 -32 -52 24 c-28 14 -67 25
-86 25 -31 0 -33 -2 -29 -27 3 -16 9 -37 13 -47 8 -18 4 -19 -86 -13 l-94 6
-220 110 c-121 61 -269 140 -330 177 -162 98 -222 117 -373 118 -118 1 -122 2
-102 18 12 10 48 30 80 45 32 15 58 33 56 38 -1 6 -20 16 -42 23 -76 27 -261
5 -378 -43 -40 -17 37 99 124 185 65 65 105 95 168 128 46 23 90 42 98 42 9 0
5 14 -16 47 -16 26 -28 48 -26 50 1 2 27 -8 57 -21 66 -31 152 -52 239 -61
l65 -6 0 93 c0 67 5 107 19 141 l18 48 22 -19 c11 -11 31 -25 44 -31 19 -10
22 -9 22 6 0 30 34 102 45 95 5 -3 29 -18 51 -33z"/>
<path d="M2468 2593 c39 -93 165 -230 214 -233 8 0 62 89 57 94 -2 2 -35 18
-72 35 -37 18 -97 52 -132 77 -73 49 -77 51 -67 27z"/>
<path d="M3195 3314 c-154 -26 -313 -88 -452 -176 -60 -38 -61 -39 -52 -71 12
-43 74 -131 112 -160 18 -13 51 -34 75 -46 92 -47 162 -148 178 -256 9 -64 22
-36 23 51 1 72 -19 147 -54 198 l-26 38 76 80 c84 89 141 179 180 282 14 38
24 70 23 71 -2 1 -39 -4 -83 -11z"/>
<path d="M1880 3299 c-110 -14 -257 -56 -374 -107 -482 -209 -804 -673 -832
-1198 -25 -451 164 -874 516 -1164 l55 -45 -63 69 c-215 232 -335 481 -377
776 -19 140 -19 243 0 373 43 282 137 494 316 712 146 177 397 349 613 419 96
32 170 73 233 131 l48 44 -35 -1 c-19 0 -64 -4 -100 -9z"/>
</g>
</svg>
